<?xml version="1.0" encoding="UTF-8"?><svg id="WORDMARK" xmlns="http://www.w3.org/2000/svg" viewBox="0 0 268.233 129.186"><g id="Azure"><polygon points="40.521 71.785 40.521 57.4 53.251 57.4 53.251 71.785 52.198 71.785 48.444 70.31 48.444 58.568 45.36 58.568 45.36 71.785 40.521 71.785" fill="#93c5fd"/><path d="M57.904,70.121h-1.598v-11.789h1.598l6.474,9.784h-.44v-9.784h1.598v11.789h-1.598l-6.474-9.784h.44v9.784Z" fill="#e7eaee"/><path d="M67.948,59.799v-1.468h8.691v1.468h-8.691ZM73.101,59.065v11.056h-1.598v-11.056h1.598Z" fill="#e7eaee"/><path d="M86.26,70.121h-7.191v-11.789h7.191v1.468h-6.327l.734-.636v4.321h5.039v1.419h-5.039v4.403l-.734-.669h6.327v1.484Z" fill="#e7eaee"/><path d="M90.988,70.121h-1.598v-11.789h4.452c1.261,0,2.247.313,2.96.938.712.625,1.068,1.492,1.068,2.601,0,.815-.199,1.506-.595,2.071-.397.565-.959.968-1.688,1.207l2.397,4.973h-1.777l-2.201-4.664h-3.017v4.664ZM90.988,59.766v4.272h2.87c.739,0,1.313-.19,1.72-.571.408-.38.611-.908.611-1.582,0-.685-.209-1.209-.628-1.574-.419-.364-.992-.546-1.72-.546h-2.854Z" fill="#e7eaee"/><path d="M102.468,58.331v11.789h-1.598v-11.789h1.598Z" fill="#e7eaee"/><path d="M121.122,70.121h-1.598v-11.789h4.452c1.261,0,2.247.313,2.96.938.712.625,1.068,1.492,1.068,2.601,0,.815-.199,1.506-.595,2.071-.397.565-.959.968-1.688,1.207l2.397,4.973h-1.777l-2.201-4.664h-3.017v4.664ZM121.122,59.766v4.272h2.87c.739,0,1.313-.19,1.72-.571.408-.38.611-.908.611-1.582,0-.685-.209-1.209-.628-1.574-.419-.364-.992-.546-1.72-.546h-2.854Z" fill="#e7eaee"/><path d="M144.628,58.339v11.79h-1.598v-11.79h1.598Z" fill="#e7eaee"/><path d="M149.798,58.339v11.79h-1.598v-11.79h1.598ZM148.477,70.129v-1.484h6.506v1.484h-6.506Z" fill="#e7eaee"/><path d="M159.125,58.339v11.79h-1.598v-11.79h1.598ZM157.804,70.129v-1.484h6.506v1.484h-6.506Z" fill="#e7eaee"/><path d="M166.284,65.938v-7.599h1.598v7.501c0,.946.253,1.671.758,2.177.505.505,1.225.758,2.161.758.924,0,1.636-.255,2.136-.766.5-.511.75-1.234.75-2.169v-7.501h1.614v7.599c0,.902-.182,1.68-.546,2.332-.364.652-.883,1.158-1.557,1.517-.674.359-1.473.538-2.397.538s-1.726-.177-2.405-.53-1.201-.859-1.565-1.517c-.364-.658-.546-1.438-.546-2.34Z" fill="#e7eaee"/><path d="M178.09,61.519c0-.674.169-1.266.506-1.777.337-.511.813-.908,1.427-1.19.614-.283,1.323-.424,2.128-.424.75,0,1.405.133,1.965.4.56.266,1,.644,1.321,1.133s.503,1.076.546,1.761h-1.614c-.044-.587-.261-1.044-.652-1.37-.391-.326-.919-.489-1.582-.489-.739,0-1.332.171-1.777.514-.446.343-.669.807-.669,1.394,0,.478.136.862.408,1.15.272.288.685.497,1.239.628l1.94.457c.968.218,1.693.59,2.177,1.117.484.527.726,1.204.726,2.03,0,.707-.171,1.321-.514,1.843-.342.522-.826.924-1.451,1.207-.625.283-1.356.424-2.193.424-.794,0-1.492-.133-2.096-.4-.603-.266-1.076-.647-1.419-1.142-.342-.494-.536-1.073-.579-1.737h1.631c.011.565.239,1.014.685,1.345.446.332,1.038.497,1.777.497.783,0,1.405-.174,1.867-.522.462-.348.693-.81.693-1.386,0-.467-.131-.848-.391-1.141-.261-.294-.674-.506-1.239-.636l-1.941-.44c-.957-.217-1.682-.6-2.177-1.15-.495-.549-.742-1.247-.742-2.095Z" fill="#e7eaee"/><path d="M190.597,58.339v11.79h-1.598v-11.79h1.598Z" fill="#e7eaee"/><path d="M209.252,70.129h-1.598v-11.79h1.598l6.474,9.784h-.44v-9.784h1.598v11.79h-1.598l-6.474-9.784h.44v9.784Z" fill="#e7eaee"/><path d="M219.624,61.519c0-.674.169-1.266.506-1.777.337-.511.813-.908,1.427-1.19.614-.283,1.323-.424,2.128-.424.75,0,1.405.133,1.965.4.56.266,1,.644,1.321,1.133s.503,1.076.546,1.761h-1.614c-.044-.587-.261-1.044-.652-1.37-.391-.326-.919-.489-1.582-.489-.739,0-1.332.171-1.777.514-.446.343-.669.807-.669,1.394,0,.478.136.862.408,1.15.272.288.685.497,1.239.628l1.94.457c.968.218,1.693.59,2.177,1.117.484.527.726,1.204.726,2.03,0,.707-.171,1.321-.514,1.843-.342.522-.826.924-1.451,1.207-.625.283-1.356.424-2.193.424-.794,0-1.492-.133-2.096-.4-.603-.266-1.076-.647-1.419-1.142-.342-.494-.536-1.073-.579-1.737h1.631c.011.565.239,1.014.685,1.345.446.332,1.038.497,1.777.497.783,0,1.405-.174,1.867-.522.462-.348.693-.81.693-1.386,0-.467-.131-.848-.391-1.141-.261-.294-.674-.506-1.239-.636l-1.941-.44c-.957-.217-1.682-.6-2.177-1.15-.495-.549-.742-1.247-.742-2.095Z" fill="#e7eaee"/><path d="M203.576,61.626c-.35-2.28-2.3-3.09-3.36-3.36-.35-.09-.71-.14-1.08-.14h-.04c-.2,0-.39.01-.59.04-2.73.42-3.54,2.25-3.77,3.16-.07.26-.09.52-.09.78v4.27c0,.27.03.55.1.81.83,3.05,4.05,3.14,4.05,3.14h.54c.13,0,.25-.01.37-.02,2.31-.21,3.29-1.78,3.67-2.75.16-.38.23-.79.23-1.2v-4.29c0-.14,0-.29-.03-.44ZM202.136,61.086c-1.13-.1-1.9-.85-2.12-1.34-.02-.06.03-.07.07-.08.35-.08,1.61-.1,2.1,1.27.04.1.03.16-.05.15Z" fill="#e7eaee"/><path d="M115.446,61.626c-.35-2.28-2.3-3.09-3.36-3.36-.35-.09-.71-.14-1.08-.14h-.04c-.2,0-.39.01-.59.04-2.73.42-3.54,2.25-3.77,3.16-.07.26-.09.52-.09.78v4.27c0,.27.03.55.1.81.83,3.05,4.05,3.14,4.05,3.14h.54c.13,0,.25-.01.37-.02,2.31-.21,3.29-1.78,3.67-2.75.16-.38.23-.79.23-1.2v-4.29c0-.14,0-.29-.03-.44ZM114.916,66.176c0,.36-.06.73-.2,1.07-.33.85-1.18,2.24-3.18,2.43-.1.01-.21.01-.32.01h-.47s-2.79-.08-3.51-2.77c-.06-.24-.09-.48-.09-.72v-3.78c0-.23.02-.46.08-.69.2-.8.9-2.42,3.27-2.79.17-.03.34-.04.51-.04h.04c.31,0,.63.04.93.12.92.24,2.61.96,2.92,2.98.02.13.02.26.02.39v3.79Z" fill="#e7eaee"/><path d="M107.843,65.918v-3.273c0-.2.02-.4.066-.594.166-.699.737-2.103,2.676-2.425.136-.023.275-.029.413-.029h.034c.259,0,.516.032.765.102.753.211,2.13.833,2.383,2.583.016.111.02.224.02.336v3.284c0,.316-.053.629-.162.926-.273.74-.964,1.942-2.602,2.107-.087.009-.175.011-.263.011h-.384s-2.287-.069-2.875-2.403c-.051-.204-.072-.414-.072-.624Z" fill="#e7eaee"/></g></svg>